####
#
# OBJ File Generated by Meshlab
#
####
# Object cube.obj
#
# Vertices: 8
# Faces: 6
#
####
vn -1.000000 -1.000000 2.000000
v -0.500000 -0.500000 0.500000
vn 2.000000 -2.000000 1.000000
v 0.500000 -0.500000 0.500000
vn -2.000000 2.000000 1.000000
v -0.500000 0.500000 0.500000
vn 1.000000 1.000000 2.000000
v 0.500000 0.500000 0.500000
vn -1.000000 1.000000 -2.000000
v -0.500000 0.500000 -0.500000
vn 2.000000 2.000000 -1.000000
v 0.500000 0.500000 -0.500000
vn -2.000000 -2.000000 -1.000000
v -0.500000 -0.500000 -0.500000
vn 1.000000 -1.000000 -2.000000
v 0.500000 -0.500000 -0.500000
# 8 vertices, 0 vertices normals

f 2/1/2 4/1/4 3/1/3 1/2/1
f 4/1/4 6/1/6 5/1/5 3/2/3
f 6/1/6 8/1/8 7/1/7 5/2/5
f 8/1/8 2/1/2 1/1/1 7/2/7
f 8/1/8 6/1/6 4/1/4 2/2/2
f 1/1/1 3/1/3 5/1/5 7/3/7
# 6 faces, 0 coords texture

# End of File
